<?xml version="1.0" standalone="no"?><!DOCTYPE svg PUBLIC "-//W3C//DTD SVG 1.1//EN" "http://www.w3.org/Graphics/SVG/1.1/DTD/svg11.dtd"><svg t="1542702390431" class="icon" style="" viewBox="0 0 1024 1024" version="1.1" xmlns="http://www.w3.org/2000/svg" p-id="1810" xmlns:xlink="http://www.w3.org/1999/xlink" width="64" height="64"><defs><style type="text/css"></style></defs><path d="M798.569226 808.15914H243.891218c-42.979884 0-77.888951 34.883485-77.888952 77.890998 0 42.97886 34.909068 77.887928 77.888952 77.887928h554.678008c42.953278 0 77.861322-34.909068 77.861322-77.887928 0.248663-43.007513-34.660404-77.890998-77.861322-77.890998z m15.920598-749.70482H228.191654c-34.438347 0-62.188364 27.736715-62.188364 62.162782v607.111194c0 34.438347 27.751041 62.191434 62.188364 62.191434h586.29817c34.440393 0 62.189388-27.753087 62.189387-62.191434V120.617102c0-34.425044-27.970028-62.162782-62.189387-62.162782z m-5.085832 621.456924c0 26.090215-21.944801 47.374984-49.199539 47.374984H282.476001c-27.251667 0-49.198515-21.284769-49.198515-47.374984V168.461783c0-26.118867 21.946848-47.37396 49.198515-47.373961H760.204453c27.254737 0 49.199539 21.255093 49.199539 47.373961v511.449461z" p-id="1811" fill="#13227a"></path><path d="M359.205547 320.992735h-46.214555c-5.085832 0-9.231245-4.15974-9.231245-9.245572v-46.214554c0-5.085832 4.14439-9.245572 9.231245-9.245572h46.214555c5.085832 0 9.258874 4.158716 9.258874 9.245572v46.214554c0 5.084808-4.173043 9.245572-9.258874 9.245572z m121.118521 0h-46.213531c-5.085832 0-9.260921-4.15974-9.260921-9.245572v-46.214554c0-5.085832 4.175089-9.245572 9.260921-9.245572h46.213531c5.085832 0 9.231245 4.158716 9.231245 9.245572v46.214554c-0.001023 5.084808-4.146437 9.245572-9.231245 9.245572z m121.088846 0h-46.213531c-5.086855 0-9.259898-4.15974-9.259898-9.245572v-46.214554c0-5.085832 4.173043-9.245572 9.259898-9.245572h46.213531c5.085832 0 9.260921 4.158716 9.260921 9.245572v46.214554c0 5.084808-4.175089 9.245572-9.260921 9.245572z m120.870882 0H676.068218c-5.085832 0-9.230222-4.15974-9.230222-9.245572v-46.214554c0-5.085832 4.14439-9.245572 9.230222-9.245572h46.214554c5.085832 0 9.232269 4.158716 9.232269 9.245572v46.214554c0.001023 5.084808-3.925403 9.245572-9.231245 9.245572zM336.098269 539.38879c0 25.403576 85.187171 45.99352 190.218296 45.993521 105.033172 0 190.189643-20.589944 190.189644-45.993521 0-25.399483-85.157495-45.99045-190.189644-45.99045-105.031125 0-190.218296 20.589944-190.218296 45.99045z" p-id="1812" fill="#13227a"></path></svg>