<?xml version="1.0" standalone="no"?><!DOCTYPE svg PUBLIC "-//W3C//DTD SVG 1.1//EN" "http://www.w3.org/Graphics/SVG/1.1/DTD/svg11.dtd"><svg t="1542702970767" class="icon" style="" viewBox="0 0 1024 1024" version="1.1" xmlns="http://www.w3.org/2000/svg" p-id="2373" xmlns:xlink="http://www.w3.org/1999/xlink" width="64" height="64"><defs><style type="text/css"></style></defs><path d="M862.208 915.968c0 59.392-48.128 108.032-108.032 108.032H269.824a108.032 108.032 0 0 1-108.032-108.032H0V0h1024v915.968h-161.792zM970.24 53.76H53.76v808.448h915.968c0.512 0 0.512-808.448 0.512-808.448zM108.032 538.624H916.48V107.52H108.032v431.104z m0 269.824V592.896H916.48v215.552H108.032z m754.176-161.792H538.624v108.032h-53.248V646.656H377.344v108.032h484.864V646.656z m-646.656 0a53.76 53.76 0 1 0 0 107.52 53.76 53.76 0 0 0 0-107.52z" p-id="2374" fill="#13227a"></path></svg>