<?xml version="1.0" standalone="no"?><!DOCTYPE svg PUBLIC "-//W3C//DTD SVG 1.1//EN" "http://www.w3.org/Graphics/SVG/1.1/DTD/svg11.dtd"><svg t="1542703019864" class="icon" style="" viewBox="0 0 1024 1024" version="1.1" xmlns="http://www.w3.org/2000/svg" p-id="4416" xmlns:xlink="http://www.w3.org/1999/xlink" width="64" height="64"><defs><style type="text/css"></style></defs><path d="M912.896 936.448H111.168A47.168 47.168 0 0 1 64 889.28v-94.336c0-25.984 21.12-47.104 47.168-47.104h801.728c25.984 0 47.104 21.12 47.104 47.104v94.336c0 26.048-21.12 47.168-47.104 47.168z m-660.224-99.84a41.728 41.728 0 0 0-41.664-41.664h-11.008a41.728 41.728 0 0 0-41.664 41.664v11.008c0 22.976 18.688 41.6 41.664 41.6h11.008a41.6 41.6 0 0 0 41.664-41.6v-11.008z m141.44 0a41.728 41.728 0 0 0-41.664-41.664h-11.008a41.664 41.664 0 0 0-41.664 41.664v11.008c0 22.976 18.688 41.6 41.664 41.6h10.944a41.6 41.6 0 0 0 41.664-41.6v-11.008z m141.44 0a41.6 41.6 0 0 0-41.6-41.664h-11.072a41.728 41.728 0 0 0-41.664 41.664v11.008c0 22.976 18.688 41.6 41.664 41.6h11.008a41.6 41.6 0 0 0 41.6-41.6v-11.008z m377.344-136H111.168A47.168 47.168 0 0 1 64 653.504V559.104C64 533.12 85.12 512 111.168 512h801.728c25.984 0 47.104 21.12 47.104 47.104v94.4c0 25.984-21.12 47.104-47.104 47.104zM252.672 600.832a41.664 41.664 0 0 0-41.664-41.664h-11.008a41.664 41.664 0 0 0-41.664 41.664v11.008c0 22.976 18.688 41.664 41.664 41.664h11.008a41.728 41.728 0 0 0 41.664-41.664v-11.008z m141.44 0a41.664 41.664 0 0 0-41.664-41.664h-11.008a41.6 41.6 0 0 0-41.664 41.664v11.008c0 22.976 18.688 41.664 41.664 41.664h10.944a41.728 41.728 0 0 0 41.664-41.664v-11.008z m141.44 0a41.6 41.6 0 0 0-41.6-41.664h-11.072a41.664 41.664 0 0 0-41.664 41.664v11.008c0 22.976 18.688 41.664 41.664 41.664h11.008a41.6 41.6 0 0 0 41.6-41.664v-11.008z m115.584-277.44h4.672c19.264-1.344 21.248 35.456 21.248 47.104v73.152c0 11.712 2.304 21.248-9.408 21.248h-34.112c-3.264-0.512-3.648-9.536-3.648-21.248V344.576c0-11.712 9.536-21.184 21.248-21.184z m-160.384 47.104a164.608 164.608 0 0 1 162.688-141.44c83.072 0 151.04 61.632 162.688 141.44h-52.032a35.392 35.392 0 0 0-3.072-22.08c-16.192-39.104-60.352-77.504-107.584-72.192-44.416 4.928-73.6 25.792-104.576 67.776-4.928 6.72-10.432 19.136-6.08 26.496h-52.032z m418.752 0c1.152-7.808 3.392-15.424 3.392-23.552 0-117.184-116.16-212.16-259.392-212.16-143.296 0-259.392 94.976-259.392 212.16 0 8.064 1.792 15.744 2.944 23.552h-47.296c-1.152-7.808-2.816-15.488-2.816-23.552 0-143.232 137.28-259.392 306.56-259.392C822.72 87.552 960 203.712 960 346.944c0 8.064-1.664 15.744-2.56 23.552h-47.936z" p-id="4417" fill="#13227a"></path></svg>